<?xml version="1.0" encoding="utf-8"?>
<!-- Generator: Adobe Illustrator 15.0.0, SVG Export Plug-In . SVG Version: 6.00 Build 0)  -->
<!DOCTYPE svg PUBLIC "-//W3C//DTD SVG 1.1//EN" "http://www.w3.org/Graphics/SVG/1.1/DTD/svg11.dtd">
<svg version="1.1" id="Layer_1" xmlns="http://www.w3.org/2000/svg" xmlns:xlink="http://www.w3.org/1999/xlink" x="0px" y="0px"
	 width="1417.32px" height="1417.32px" viewBox="0 0 1417.32 1417.32" enable-background="new 0 0 1417.32 1417.32"
	 xml:space="preserve">
<path fill="#16A747" d="M811.028,916.408c-85.243,2.045-173.909-21.621-243.49-49.639c-6.158,168.421-27.537,316.759-93.664,416.771
	c-74.128,112.114-209.354,137.536-284.254,97.001c-1.263-0.646-2.507-1.326-3.721-2.051c-0.223-0.13-0.461-0.245-0.683-0.377
	c-0.147-0.088-0.28-0.215-0.426-0.309c-18.271-11.435-30.43-31.726-30.43-54.868c0-35.729,28.963-64.692,64.693-64.692
	c2.297,0,4.565,0.123,6.8,0.356c2.521,0.104,5.101,0.317,7.808,0.775c70.782,11.965,129.211-129.271,129.211-303.559
	c0-60.604-0.692-138.335-1.595-213.954c-76.342-60.576-137.059-123.275-177.224-163.421c0.018-0.004,0.033-0.008,0.052-0.013
	c-13.834-11.864-22.61-29.459-22.61-49.112c0-35.729,28.965-64.694,64.694-64.694c17.269,0,32.945,6.779,44.546,17.805
	c25.66,17.112,55.614,37.061,87.673,57.562c-0.733-45.319-1.259-74.382-1.259-74.382c-0.007-1.042-0.04-2.077-0.04-3.121
	c0-250.693,203.227-453.919,453.919-453.919c250.69,0,453.919,203.226,453.919,453.919S1061.648,910.393,811.028,916.408z
	 M811.028,219.613c-134.137,0-242.875,108.74-242.875,242.876c0,64.739,0.888,129.634,1.354,193.429
	c143.471,58.88,249.508,49.447,241.521,49.447c134.136,0,242.876-108.74,242.876-242.875
	C1053.904,328.354,945.164,219.613,811.028,219.613z"/>
</svg>
